<svg xmlns="http://www.w3.org/2000/svg" width="24" height="24" viewBox="0 0 24 24" fill="none">
  <path d="M20.3 15.1001V9.90015H14.8H3.80002V17.9001C3.80002 19.2001 4.80001 20.2001 6.10001 20.2001H14.8H18C19.3 20.2001 20.3 19.2001 20.3 17.9001V15.1001Z" stroke="#1A1A1A" stroke-width="1.5" stroke-miterlimit="10" stroke-linecap="round" stroke-linejoin="round"/>
  <path d="M20.3 9.90005H3.80002V7.60005C3.80002 6.30005 4.80001 5.30005 6.10001 5.30005H17.9C19.2 5.30005 20.2 6.30005 20.2 7.60005V9.90005H20.3Z" stroke="#1A1A1A" stroke-width="1.5" stroke-miterlimit="10" stroke-linecap="round" stroke-linejoin="round"/>
  <path d="M7.5 14.1C7.94183 14.1 8.30002 13.7418 8.30002 13.3C8.30002 12.8582 7.94183 12.5 7.5 12.5C7.05817 12.5 6.70001 12.8582 6.70001 13.3C6.70001 13.7418 7.05817 14.1 7.5 14.1Z" fill="#1A1A1A"/>
  <path d="M12 14.1C12.4418 14.1 12.8 13.7418 12.8 13.3C12.8 12.8582 12.4418 12.5 12 12.5C11.5582 12.5 11.2 12.8582 11.2 13.3C11.2 13.7418 11.5582 14.1 12 14.1Z" fill="#1A1A1A"/>
  <path d="M16.5 14.1C16.9418 14.1 17.3 13.7418 17.3 13.3C17.3 12.8582 16.9418 12.5 16.5 12.5C16.0582 12.5 15.7 12.8582 15.7 13.3C15.7 13.7418 16.0582 14.1 16.5 14.1Z" fill="#1A1A1A"/>
  <path d="M7.5 17.7001C7.94183 17.7001 8.30002 17.3419 8.30002 16.9001C8.30002 16.4583 7.94183 16.1001 7.5 16.1001C7.05817 16.1001 6.70001 16.4583 6.70001 16.9001C6.70001 17.3419 7.05817 17.7001 7.5 17.7001Z" fill="#1A1A1A"/>
  <path d="M12 17.7001C12.4418 17.7001 12.8 17.3419 12.8 16.9001C12.8 16.4583 12.4418 16.1001 12 16.1001C11.5582 16.1001 11.2 16.4583 11.2 16.9001C11.2 17.3419 11.5582 17.7001 12 17.7001Z" fill="#1A1A1A"/>
  <path d="M8.30002 6.80005V3.80005" stroke="#1A1A1A" stroke-width="1.5" stroke-miterlimit="10" stroke-linecap="round" stroke-linejoin="round"/>
  <path d="M15.8 6.80005V3.80005" stroke="#1A1A1A" stroke-width="1.5" stroke-miterlimit="10" stroke-linecap="round" stroke-linejoin="round"/>
</svg>
