<svg xmlns="http://www.w3.org/2000/svg" width="24" height="24" viewBox="0 0 24 24" fill="none">
  <path d="M20.3 10.5999V18.5999C20.3 19.3999 19.6 20.0999 18.8 20.0999H15.8C15 20.0999 14.3 19.3999 14.3 18.5999V15.6999C14.3 14.4999 13.3 13.4999 12.1 13.4999C10.9 13.4999 9.89999 14.4999 9.89999 15.6999V18.5999C9.89999 19.3999 9.19999 20.0999 8.39999 20.0999H5.39999C4.59999 20.0999 3.89999 19.3999 3.89999 18.5999V10.5999C3.89999 10.0999 4.09999 9.6999 4.49999 9.3999L11.3 4.1999C11.8 3.7999 12.6 3.7999 13.1 4.1999L19.9 9.3999C20 9.6999 20.3 10.0999 20.3 10.5999Z" fill="black" stroke="black" stroke-width="1.5" stroke-miterlimit="10" stroke-linecap="round" stroke-linejoin="round"/>
</svg>
