<svg width="48" height="34" viewBox="0 0 48 34" fill="none" xmlns="http://www.w3.org/2000/svg">
<path fill-rule="evenodd" clip-rule="evenodd" d="M2.52964 0.150146C3.92673 0.150146 5.05929 1.28271 5.05929 2.67979L5.05929 30.8221C5.05929 32.2192 3.92673 33.3517 2.52965 33.3517C1.13256 33.3517 1.40178e-06 32.2192 1.34071e-06 30.8221L1.10574e-07 2.67979C4.95058e-08 1.28271 1.13256 0.150146 2.52964 0.150146Z" fill="url(#paint0_linear_1106_4266)"/>
<path fill-rule="evenodd" clip-rule="evenodd" d="M12.5217 11.1541C13.9188 11.1541 15.0514 12.2866 15.0514 13.6837L15.0514 30.822C15.0514 32.2191 13.9188 33.3517 12.5217 33.3517C11.1247 33.3517 9.9921 32.2191 9.9921 30.822L9.9921 13.6837C9.9921 12.2866 11.1247 11.1541 12.5217 11.1541Z" fill="url(#paint1_linear_1106_4266)"/>
<path fill-rule="evenodd" clip-rule="evenodd" d="M23.2727 0.150146C24.6698 0.150146 25.8024 1.28271 25.8024 2.67979L25.8024 27.7865C25.8024 28.0659 26.0289 28.2924 26.3083 28.2924L27.1304 28.2924C28.5275 28.2924 29.6601 29.425 29.6601 30.8221C29.6601 32.2192 28.5275 33.3517 27.1304 33.3517L26.3083 33.3517C23.2347 33.3517 20.7431 30.8601 20.7431 27.7865L20.7431 2.67979C20.7431 1.28271 21.8756 0.150146 23.2727 0.150146Z" fill="url(#paint2_linear_1106_4266)"/>
<path fill-rule="evenodd" clip-rule="evenodd" d="M41.0119 26.4585C39.9466 26.4585 39.083 27.322 39.083 28.3873L39.083 30.8221C39.083 32.2192 37.9505 33.3517 36.5534 33.3517C35.1563 33.3517 34.0237 32.2192 34.0237 30.8221L34.0237 28.3873C34.0237 24.5279 37.1524 21.3992 41.0119 21.3992C44.8713 21.3992 48 24.5279 48 28.3873L48 30.8221C48 32.2192 46.8675 33.3517 45.4704 33.3517C44.0733 33.3517 42.9407 32.2192 42.9407 30.8221L42.9407 28.3873C42.9407 27.322 42.0772 26.4585 41.0119 26.4585Z" fill="url(#paint3_linear_1106_4266)"/>
<path fill-rule="evenodd" clip-rule="evenodd" d="M30.7984 13.6837C30.7984 15.0808 29.6659 16.2133 28.2688 16.2133H23.2727C21.8757 16.2133 20.7431 15.0808 20.7431 13.6837C20.7431 12.2866 21.8757 11.1541 23.2727 11.1541H28.2688C29.6659 11.1541 30.7984 12.2866 30.7984 13.6837Z" fill="url(#paint4_linear_1106_4266)"/>
<path fill-rule="evenodd" clip-rule="evenodd" d="M41.0119 16.2133C39.9466 16.2133 39.083 17.0769 39.083 18.1422L39.083 30.822C39.083 32.2191 37.9505 33.3517 36.5534 33.3517C35.1563 33.3517 34.0237 32.2191 34.0237 30.822L34.0237 18.1422C34.0237 14.2827 37.1524 11.1541 41.0119 11.1541C44.8713 11.1541 48 14.2827 48 18.1422L48 30.822C48 32.2191 46.8675 33.3517 45.4704 33.3517C44.0733 33.3517 42.9407 32.2191 42.9407 30.822L42.9407 18.1422C42.9407 17.0769 42.0772 16.2133 41.0119 16.2133Z" fill="url(#paint5_linear_1106_4266)"/>
<defs>
<linearGradient id="paint0_linear_1106_4266" x1="2.56126" y1="6.88532" x2="2.56126" y2="35.7865" gradientUnits="userSpaceOnUse">
<stop/>
<stop offset="1" stop-opacity="0"/>
</linearGradient>
<linearGradient id="paint1_linear_1106_4266" x1="12.5534" y1="16.2448" x2="12.5534" y2="33.8453" gradientUnits="userSpaceOnUse">
<stop/>
<stop offset="1" stop-opacity="0"/>
</linearGradient>
<linearGradient id="paint2_linear_1106_4266" x1="23.2727" y1="17.3833" x2="23.3043" y2="35.7865" gradientUnits="userSpaceOnUse">
<stop/>
<stop offset="1" stop-opacity="0"/>
</linearGradient>
<linearGradient id="paint3_linear_1106_4266" x1="41.0117" y1="23.1353" x2="41.0118" y2="30.0038" gradientUnits="userSpaceOnUse">
<stop/>
<stop offset="1" stop-opacity="0"/>
</linearGradient>
<linearGradient id="paint4_linear_1106_4266" x1="28.2688" y1="13.7153" x2="21.4387" y2="13.7153" gradientUnits="userSpaceOnUse">
<stop/>
<stop offset="1" stop-opacity="0"/>
</linearGradient>
<linearGradient id="paint5_linear_1106_4266" x1="41.0117" y1="18.0473" x2="41.0118" y2="33.8453" gradientUnits="userSpaceOnUse">
<stop/>
<stop offset="1" stop-color="#B1B1B1"/>
</linearGradient>
</defs>
</svg>
