<svg width="34" height="43" viewBox="0 0 34 43" fill="none" xmlns="http://www.w3.org/2000/svg">
<path id="Vector" d="M4.71965 2.8477C5.50601 2.84773 6.14349 2.21028 6.14349 1.42392C6.14349 0.63759 5.50605 0.000142348 4.71971 0.000142348H2C0.89543 0.000142348 0 0.895573 0 2.00014V10.7271C0 13.2243 0.92 15.6383 2.59194 17.5234C3.87709 18.973 5.54151 20.0338 7.3888 20.6021C8.34493 20.8962 9.09235 21.7232 9.09235 22.7235V32.7479C9.09235 36.4113 11.0835 39.7948 14.316 41.6263C17.5484 43.4578 21.5307 43.458 24.7633 41.6263C27.9937 39.7946 29.985 36.4114 29.985 32.7479V27.9198C29.985 27.0165 30.615 26.2575 31.3893 25.792C33.196 24.706 34.2466 22.6499 33.9503 20.4993C33.5838 17.839 31.2696 15.8553 28.5342 15.8553C25.8006 15.8553 23.4861 17.839 23.12 20.4993C22.8241 22.6499 23.8732 24.7059 25.6792 25.792C26.4534 26.2575 27.0835 27.0165 27.0835 27.9198V32.7479C27.0835 35.3934 25.6458 37.8371 23.3127 39.1607C20.9777 40.4826 18.1026 40.4826 15.7672 39.1607C13.4322 37.837 11.9945 35.3936 11.9945 32.7479V22.7152C11.9945 21.7184 12.7368 20.8933 13.6883 20.5967C15.5299 20.0226 17.1865 18.9591 18.4668 17.5086C20.1274 15.625 21.0418 13.2167 21.038 10.727V2C21.038 0.895429 20.1426 0 19.038 0H16.3202C15.5339 0 14.8964 0.637461 14.8964 1.42381C14.8964 2.21016 15.5339 2.84762 16.3202 2.84762H16.5164C17.4111 2.84762 18.1363 3.5729 18.1363 4.46757V10.727C18.1363 13.3966 16.6855 15.8641 14.3278 17.201C11.972 18.5359 9.06836 18.5359 6.71069 17.201C4.3549 15.8644 2.90214 13.3968 2.90214 10.727V4.4683C2.90214 3.57323 3.62775 2.84765 4.52282 2.84769L4.71965 2.8477ZM25.9228 21.2144C25.9228 21.2144 25.9228 21.2144 25.9228 21.2144C25.9228 20.1985 26.5481 19.2808 27.5059 18.8915C28.4637 18.5022 29.5651 18.7172 30.2981 19.4365C31.031 20.1558 31.2502 21.2385 30.8535 22.1784C30.4567 23.1184 29.5235 23.7302 28.4864 23.7302C27.0695 23.7302 25.9228 22.6048 25.9228 21.2144C25.9228 21.2144 25.9228 21.2144 25.9228 21.2144Z" fill="#BCAEF7"/>
</svg>
