<svg width="19" height="19" viewBox="0 0 19 19" fill="none" xmlns="http://www.w3.org/2000/svg">
  <circle cx="9.5" cy="9.5" r="9.25" fill="#EBEDFF" stroke="#7492FF" stroke-width="0.5"/>
  <path d="M10.744 13.136C10.752 13.304 10.844 13.408 11.02 13.448L11.224 13.484C11.4 13.524 11.488 13.62 11.488 13.772C11.488 13.924 11.388 14 11.188 14H8.98005C8.78005 14 8.68005 13.924 8.68005 13.772C8.68005 13.628 8.77205 13.536 8.95605 13.496L9.19605 13.448C9.37205 13.408 9.46405 13.304 9.47205 13.136V11.012C9.47205 10.852 9.47205 10.708 9.47205 10.58C9.47205 10.452 9.46805 10.332 9.46005 10.22C9.45205 10.156 9.44805 10.092 9.44805 10.028C9.44805 9.964 9.44805 9.9 9.44805 9.836C9.43205 9.652 9.33605 9.548 9.16005 9.524L8.87205 9.488C8.68805 9.464 8.59605 9.38 8.59605 9.236C8.59605 9.108 8.67605 9.012 8.83605 8.948L10.396 8.384C10.436 8.368 10.472 8.356 10.504 8.348C10.536 8.34 10.568 8.336 10.6 8.336C10.64 8.336 10.672 8.348 10.696 8.372C10.752 8.42 10.78 8.516 10.78 8.66L10.744 10.028V13.136ZM10.096 7.208C9.84005 7.208 9.62805 7.132 9.46005 6.98C9.30005 6.828 9.22005 6.628 9.22005 6.38C9.22005 6.132 9.30005 5.932 9.46005 5.78C9.62805 5.628 9.84005 5.552 10.096 5.552C10.344 5.552 10.548 5.628 10.708 5.78C10.876 5.932 10.96 6.132 10.96 6.38C10.96 6.628 10.876 6.828 10.708 6.98C10.548 7.132 10.344 7.208 10.096 7.208Z" fill="#7492FF"/>
</svg>
