<svg width="59" height="40" viewBox="0 0 59 40" fill="none" xmlns="http://www.w3.org/2000/svg">
<path fill-rule="evenodd" clip-rule="evenodd" d="M3.04762 -1.33216e-07C4.73077 -2.06788e-07 6.09523 1.36446 6.09523 3.04762L6.09524 36.9524C6.09524 38.6355 4.73077 40 3.04762 40C1.36447 40 1.68881e-06 38.6355 1.61524e-06 36.9524L1.33216e-07 3.04762C5.96426e-08 1.36446 1.36446 -5.96426e-08 3.04762 -1.33216e-07Z" fill="url(#paint0_linear_1129_5596)"/>
<path fill-rule="evenodd" clip-rule="evenodd" d="M16 13.2571C17.6832 13.2571 19.0476 14.6215 19.0476 16.3047L19.0476 36.9523C19.0476 38.6355 17.6832 39.9999 16 39.9999C14.3169 39.9999 12.9524 38.6355 12.9524 36.9523L12.9524 16.3047C12.9524 14.6215 14.3169 13.2571 16 13.2571Z" fill="url(#paint1_linear_1129_5596)"/>
<path fill-rule="evenodd" clip-rule="evenodd" d="M28.9524 -1.33216e-07C30.6356 -2.06788e-07 32 1.36446 32 3.04762L32 33.2952C32 33.6318 32.2729 33.9047 32.6095 33.9047L33.6 33.9047C35.2832 33.9047 36.6476 35.2692 36.6476 36.9524C36.6476 38.6355 35.2832 40 33.6 40L32.6095 40C28.9066 40 25.9048 36.9981 25.9048 33.2952L25.9048 3.04762C25.9048 1.36446 27.2692 -5.96426e-08 28.9524 -1.33216e-07Z" fill="url(#paint2_linear_1129_5596)"/>
<mask id="mask0_1129_5596" style="mask-type:alpha" maskUnits="userSpaceOnUse" x="41" y="25" width="18" height="15">
<path fill-rule="evenodd" clip-rule="evenodd" d="M50.3236 31.6951C49.0402 31.6951 47.9998 32.7355 47.9998 34.0189L47.9998 36.9522C47.9998 38.6354 46.6353 39.9998 44.9522 39.9998C43.269 39.9998 41.9045 38.6354 41.9045 36.9522L41.9045 34.0189C41.9045 29.3692 45.6739 25.5999 50.3236 25.5999C54.9733 25.5999 58.7426 29.3692 58.7426 34.0189L58.7426 36.9522C58.7426 38.6354 57.3782 39.9998 55.695 39.9998C54.0119 39.9998 52.6474 38.6354 52.6474 36.9522L52.6474 34.0189C52.6474 32.7355 51.607 31.6951 50.3236 31.6951Z" fill="url(#paint3_linear_1129_5596)"/>
</mask>
<g mask="url(#mask0_1129_5596)">
<path d="M48 24.9905H52.6476V35.4286H48V24.9905Z" fill="url(#paint4_linear_1129_5596)"/>
</g>
<path fill-rule="evenodd" clip-rule="evenodd" d="M38.019 16.3047C38.019 17.9878 36.6546 19.3523 34.9714 19.3523H28.9524C27.2692 19.3523 25.9048 17.9878 25.9048 16.3047C25.9048 14.6215 27.2692 13.2571 28.9524 13.2571H34.9714C36.6546 13.2571 38.019 14.6215 38.019 16.3047Z" fill="url(#paint5_linear_1129_5596)"/>
<path fill-rule="evenodd" clip-rule="evenodd" d="M50.3236 19.3523C49.0402 19.3523 47.9998 20.3927 47.9998 21.6761L47.9998 36.9523C47.9998 38.6355 46.6353 39.9999 44.9522 39.9999C43.269 39.9999 41.9045 38.6355 41.9045 36.9523L41.9045 21.6761C41.9045 17.0264 45.6739 13.2571 50.3236 13.2571C54.9733 13.2571 58.7426 17.0264 58.7426 21.6761L58.7426 36.9523C58.7426 38.6355 57.3782 39.9999 55.695 39.9999C54.0119 39.9999 52.6474 38.6355 52.6474 36.9523L52.6474 21.6761C52.6474 20.3927 51.607 19.3523 50.3236 19.3523Z" fill="url(#paint6_linear_1129_5596)"/>
<defs>
<linearGradient id="paint0_linear_1129_5596" x1="3.08571" y1="8.11428" x2="3.08571" y2="42.9333" gradientUnits="userSpaceOnUse">
<stop stop-color="white"/>
<stop offset="1" stop-color="white" stop-opacity="0"/>
</linearGradient>
<linearGradient id="paint1_linear_1129_5596" x1="16.0381" y1="19.3902" x2="16.0381" y2="40.5946" gradientUnits="userSpaceOnUse">
<stop stop-color="white"/>
<stop offset="1" stop-color="white" stop-opacity="0"/>
</linearGradient>
<linearGradient id="paint2_linear_1129_5596" x1="28.9524" y1="20.7619" x2="28.9905" y2="42.9333" gradientUnits="userSpaceOnUse">
<stop stop-color="white"/>
<stop offset="1" stop-color="white" stop-opacity="0"/>
</linearGradient>
<linearGradient id="paint3_linear_1129_5596" x1="50.3235" y1="29.8885" x2="50.3235" y2="38.4172" gradientUnits="userSpaceOnUse">
<stop stop-color="white"/>
<stop offset="1" stop-color="white" stop-opacity="0"/>
</linearGradient>
<linearGradient id="paint4_linear_1129_5596" x1="50.3238" y1="22.9333" x2="50.3238" y2="35.4286" gradientUnits="userSpaceOnUse">
<stop stop-color="white"/>
<stop offset="1" stop-color="white" stop-opacity="0"/>
</linearGradient>
<linearGradient id="paint5_linear_1129_5596" x1="34.9714" y1="16.3428" x2="26.7429" y2="16.3428" gradientUnits="userSpaceOnUse">
<stop stop-color="white"/>
<stop offset="1" stop-color="white" stop-opacity="0"/>
</linearGradient>
<linearGradient id="paint6_linear_1129_5596" x1="50.3235" y1="19.3902" x2="50.3236" y2="40.5946" gradientUnits="userSpaceOnUse">
<stop stop-color="white"/>
<stop offset="1" stop-color="white" stop-opacity="0"/>
</linearGradient>
</defs>
</svg>
