<svg xmlns="http://www.w3.org/2000/svg" width="24" height="24" viewBox="0 0 24 24" fill="none">
  <path d="M8.60001 13.8999H6C4.9 13.8999 4 14.7999 4 15.8999V18.4999C4 19.5999 4.9 20.4999 6 20.4999H8.60001C9.70001 20.4999 10.6 19.5999 10.6 18.4999V15.8999C10.6 14.7999 9.70001 13.8999 8.60001 13.8999Z" stroke="#1A1A1A" stroke-width="1.5" stroke-miterlimit="10" stroke-linecap="round" stroke-linejoin="round"/>
  <path d="M18.5 13.8999H15.9C14.8 13.8999 13.9 14.7999 13.9 15.8999V18.4999C13.9 19.5999 14.8 20.4999 15.9 20.4999H18.5C19.6 20.4999 20.5 19.5999 20.5 18.4999V15.8999C20.5 14.7999 19.6 13.8999 18.5 13.8999Z" stroke="#1A1A1A" stroke-width="1.5" stroke-miterlimit="10" stroke-linecap="round" stroke-linejoin="round"/>
  <path d="M18.5 4H15.9C14.8 4 13.9 4.9 13.9 6V8.6C13.9 9.7 14.8 10.6 15.9 10.6H18.5C19.6 10.6 20.5 9.7 20.5 8.6V6C20.5 4.9 19.6 4 18.5 4Z" stroke="#1A1A1A" stroke-width="1.5" stroke-miterlimit="10" stroke-linecap="round" stroke-linejoin="round"/>
  <path d="M8.60001 4H6C4.9 4 4 4.9 4 6V8.6C4 9.7 4.9 10.6 6 10.6H8.60001C9.70001 10.6 10.6 9.7 10.6 8.6V6C10.6 4.9 9.70001 4 8.60001 4Z" stroke="#1A1A1A" stroke-width="1.5" stroke-miterlimit="10" stroke-linecap="round" stroke-linejoin="round"/>
</svg>
